<?xml version="1.0" encoding="utf-8"?>
<!-- Generator: Adobe Illustrator 23.0.0, SVG Export Plug-In . SVG Version: 6.00 Build 0)  -->
<svg version="1.1" id="Layer_1" xmlns="http://www.w3.org/2000/svg" xmlns:xlink="http://www.w3.org/1999/xlink" x="0px" y="0px"
	 viewBox="0 0 512 512" enable-background="new 0 0 512 512" xml:space="preserve">
<g>
	<path fill="none" stroke="#000000" stroke-width="15" stroke-linecap="round" stroke-linejoin="round" stroke-miterlimit="10" d="
		M494.5,18v342H317.78c5.87-10.33,9.22-22.28,9.22-35c0-0.33,0-0.67-0.01-1c-0.53-38.75-32.11-70-70.99-70s-70.46,31.25-70.99,70
		c-0.01,0.33-0.01,0.67-0.01,1c0,12.72,3.35,24.67,9.22,35H17.5V18H494.5z"/>
	<path fill="none" stroke="#000000" stroke-width="15" stroke-linecap="round" stroke-linejoin="round" stroke-miterlimit="10" d="
		M458.5,54v270H326.99c-0.53-38.75-32.11-70-70.99-70s-70.46,31.25-70.99,70H53.5V54H458.5z"/>
	<path fill="none" stroke="#000000" stroke-width="15" stroke-linecap="round" stroke-linejoin="round" stroke-miterlimit="10" d="
		M327,325c0,12.72-3.35,24.67-9.22,35c-6.98,12.31-17.55,22.33-30.28,28.64c-9.49,4.71-20.19,7.36-31.5,7.36s-22.01-2.65-31.5-7.36
		c-12.73-6.31-23.3-16.33-30.28-28.64c-5.87-10.33-9.22-22.28-9.22-35c0-0.33,0-0.67,0.01-1c0.53-38.75,32.11-70,70.99-70
		s70.46,31.25,70.99,70C327,324.33,327,324.67,327,325z"/>
	<path fill="none" stroke="#000000" stroke-width="15" stroke-linecap="round" stroke-linejoin="round" stroke-miterlimit="10" d="
		M287.5,388.64V495L256,463.5L224.5,495V388.64c9.49,4.71,20.19,7.36,31.5,7.36S278.01,393.35,287.5,388.64z"/>
	
		<line fill="none" stroke="#000000" stroke-width="15" stroke-linecap="round" stroke-linejoin="round" stroke-miterlimit="10" x1="125.5" y1="99" x2="386.5" y2="99"/>
	
		<line fill="none" stroke="#000000" stroke-width="15" stroke-linecap="round" stroke-linejoin="round" stroke-miterlimit="10" x1="125.5" y1="153" x2="386.5" y2="153"/>
	
		<line fill="none" stroke="#000000" stroke-width="15" stroke-linecap="round" stroke-linejoin="round" stroke-miterlimit="10" x1="175" y1="207" x2="337" y2="207"/>
</g>
<polyline fill="none" stroke="#000000" stroke-width="15" stroke-linecap="round" stroke-linejoin="round" stroke-miterlimit="10" points="
	220.5,328.5 243,351 297,297 "/>
</svg>
